<mxfile host="app.diagrams.net" modified="2024-04-05T13:40:07.304Z" agent="Mozilla/5.0 (Windows NT 10.0; Win64; x64) AppleWebKit/537.36 (KHTML, like Gecko) Chrome/121.0.0.0 Safari/537.36 OPR/107.0.0.0" etag="Z70knfgq8ZQ-M4sL8yz-" version="24.2.2" type="github">
  <diagram name="Page-1" id="58cdce13-f638-feb5-8d6f-7d28b1aa9fa0">
    <mxGraphModel dx="1633" dy="789" grid="1" gridSize="10" guides="1" tooltips="1" connect="1" arrows="1" fold="1" page="1" pageScale="1" pageWidth="1200" pageHeight="1400" background="none" math="0" shadow="0">
      <root>
        <mxCell id="0" />
        <mxCell id="1" parent="0" />
        <mxCell id="382b91b5511bd0f7-1" value="" style="ellipse;html=1;shape=startState;fillColor=#000000;strokeColor=#ff0000;rounded=1;shadow=0;comic=0;labelBackgroundColor=none;fontFamily=Verdana;fontSize=12;fontColor=#000000;align=center;direction=south;" parent="1" vertex="1">
          <mxGeometry y="135" width="30" height="30" as="geometry" />
        </mxCell>
        <mxCell id="JUWiWhIVb3IbLbOKeKsi-12" style="edgeStyle=orthogonalEdgeStyle;rounded=1;orthogonalLoop=1;jettySize=auto;html=1;exitX=1;exitY=0.5;exitDx=0;exitDy=0;entryX=0;entryY=0.5;entryDx=0;entryDy=0;strokeColor=#ff0000;align=left;verticalAlign=middle;fontFamily=Verdana;fontSize=12;fontColor=default;labelBackgroundColor=none;endArrow=open;endSize=8;" parent="1" source="382b91b5511bd0f7-6" target="JUWiWhIVb3IbLbOKeKsi-3" edge="1">
          <mxGeometry relative="1" as="geometry" />
        </mxCell>
        <mxCell id="JUWiWhIVb3IbLbOKeKsi-14" value="Idle Time Done" style="edgeLabel;html=1;align=center;verticalAlign=middle;resizable=0;points=[];" parent="JUWiWhIVb3IbLbOKeKsi-12" vertex="1" connectable="0">
          <mxGeometry x="-0.0677" y="2" relative="1" as="geometry">
            <mxPoint x="-4" y="12" as="offset" />
          </mxGeometry>
        </mxCell>
        <mxCell id="JUWiWhIVb3IbLbOKeKsi-49" style="edgeStyle=orthogonalEdgeStyle;rounded=1;orthogonalLoop=1;jettySize=auto;html=1;exitX=0.5;exitY=1;exitDx=0;exitDy=0;entryX=0.5;entryY=0;entryDx=0;entryDy=0;strokeColor=#ff0000;align=left;verticalAlign=middle;fontFamily=Verdana;fontSize=12;fontColor=default;labelBackgroundColor=none;endArrow=open;endSize=8;" parent="1" source="382b91b5511bd0f7-6" target="JUWiWhIVb3IbLbOKeKsi-15" edge="1">
          <mxGeometry relative="1" as="geometry" />
        </mxCell>
        <mxCell id="382b91b5511bd0f7-6" value="Idle" style="rounded=1;whiteSpace=wrap;html=1;arcSize=24;fillColor=#ffffc0;strokeColor=#ff0000;shadow=0;comic=0;labelBackgroundColor=none;fontFamily=Verdana;fontSize=12;fontColor=#000000;align=center;" parent="1" vertex="1">
          <mxGeometry x="240" y="120" width="120" height="60" as="geometry" />
        </mxCell>
        <mxCell id="2a3bc250acf0617d-9" style="edgeStyle=orthogonalEdgeStyle;html=1;labelBackgroundColor=none;endArrow=open;endSize=8;strokeColor=#ff0000;fontFamily=Verdana;fontSize=12;align=left;" parent="1" source="382b91b5511bd0f7-1" target="382b91b5511bd0f7-6" edge="1">
          <mxGeometry relative="1" as="geometry">
            <Array as="points">
              <mxPoint x="140" y="150" />
              <mxPoint x="140" y="150" />
            </Array>
          </mxGeometry>
        </mxCell>
        <mxCell id="JUWiWhIVb3IbLbOKeKsi-28" style="edgeStyle=orthogonalEdgeStyle;rounded=1;orthogonalLoop=1;jettySize=auto;html=1;exitX=0.5;exitY=1;exitDx=0;exitDy=0;entryX=0.5;entryY=0;entryDx=0;entryDy=0;strokeColor=#ff0000;align=left;verticalAlign=middle;fontFamily=Verdana;fontSize=12;fontColor=default;labelBackgroundColor=none;endArrow=open;endSize=8;" parent="1" source="JUWiWhIVb3IbLbOKeKsi-1" target="JUWiWhIVb3IbLbOKeKsi-24" edge="1">
          <mxGeometry relative="1" as="geometry" />
        </mxCell>
        <mxCell id="JUWiWhIVb3IbLbOKeKsi-59" style="edgeStyle=orthogonalEdgeStyle;rounded=0;orthogonalLoop=1;jettySize=auto;html=1;exitX=0.25;exitY=0;exitDx=0;exitDy=0;entryX=1;entryY=0.5;entryDx=0;entryDy=0;strokeColor=#ff0000;align=center;verticalAlign=middle;fontFamily=Helvetica;fontSize=12;fontColor=#000000;fillColor=#ffffc0;" parent="1" source="JUWiWhIVb3IbLbOKeKsi-1" target="JUWiWhIVb3IbLbOKeKsi-54" edge="1">
          <mxGeometry relative="1" as="geometry" />
        </mxCell>
        <mxCell id="JUWiWhIVb3IbLbOKeKsi-1" value="Walk to Point&lt;div&gt;(Player Pos)&lt;/div&gt;" style="rounded=1;whiteSpace=wrap;html=1;arcSize=24;fontColor=#000000;fillColor=#ffffc0;strokeColor=#ff0000;shadow=0;comic=0;align=center;verticalAlign=middle;fontFamily=Verdana;fontSize=12;labelBackgroundColor=none;" parent="1" vertex="1">
          <mxGeometry x="380" y="420" width="120" height="60" as="geometry" />
        </mxCell>
        <mxCell id="JUWiWhIVb3IbLbOKeKsi-19" style="edgeStyle=orthogonalEdgeStyle;rounded=1;orthogonalLoop=1;jettySize=auto;html=1;exitX=0.5;exitY=0;exitDx=0;exitDy=0;strokeColor=#ff0000;align=left;verticalAlign=middle;fontFamily=Verdana;fontSize=12;fontColor=default;labelBackgroundColor=none;endArrow=open;endSize=8;entryX=0.5;entryY=0;entryDx=0;entryDy=0;" parent="1" target="382b91b5511bd0f7-6" edge="1">
          <mxGeometry relative="1" as="geometry">
            <mxPoint x="610" y="165" as="sourcePoint" />
            <mxPoint x="309.9999999999998" y="95" as="targetPoint" />
            <Array as="points">
              <mxPoint x="610" y="95" />
              <mxPoint x="300" y="95" />
            </Array>
          </mxGeometry>
        </mxCell>
        <mxCell id="JUWiWhIVb3IbLbOKeKsi-20" value="Destination Reached" style="edgeLabel;html=1;align=center;verticalAlign=middle;resizable=0;points=[];" parent="JUWiWhIVb3IbLbOKeKsi-19" vertex="1" connectable="0">
          <mxGeometry x="0.2008" relative="1" as="geometry">
            <mxPoint y="-15" as="offset" />
          </mxGeometry>
        </mxCell>
        <mxCell id="JUWiWhIVb3IbLbOKeKsi-50" style="edgeStyle=orthogonalEdgeStyle;rounded=1;orthogonalLoop=1;jettySize=auto;html=1;exitX=0.5;exitY=1;exitDx=0;exitDy=0;entryX=0.5;entryY=0;entryDx=0;entryDy=0;strokeColor=#ff0000;align=left;verticalAlign=middle;fontFamily=Verdana;fontSize=12;fontColor=default;labelBackgroundColor=none;endArrow=open;endSize=8;" parent="1" source="JUWiWhIVb3IbLbOKeKsi-3" target="JUWiWhIVb3IbLbOKeKsi-44" edge="1">
          <mxGeometry relative="1" as="geometry" />
        </mxCell>
        <mxCell id="JUWiWhIVb3IbLbOKeKsi-3" value="Patrol" style="rounded=1;whiteSpace=wrap;html=1;arcSize=24;fontColor=#000000;fillColor=#ffffc0;strokeColor=#ff0000;glass=0;shadow=0;comic=0;align=center;verticalAlign=middle;fontFamily=Verdana;fontSize=12;labelBackgroundColor=none;" parent="1" vertex="1">
          <mxGeometry x="540" y="120" width="120" height="60" as="geometry" />
        </mxCell>
        <mxCell id="JUWiWhIVb3IbLbOKeKsi-41" style="edgeStyle=orthogonalEdgeStyle;rounded=1;orthogonalLoop=1;jettySize=auto;html=1;exitX=1;exitY=0.5;exitDx=0;exitDy=0;entryX=1;entryY=0.5;entryDx=0;entryDy=0;strokeColor=#ff0000;align=left;verticalAlign=middle;fontFamily=Verdana;fontSize=12;fontColor=default;labelBackgroundColor=none;endArrow=open;endSize=8;" parent="1" source="JUWiWhIVb3IbLbOKeKsi-7" target="JUWiWhIVb3IbLbOKeKsi-24" edge="1">
          <mxGeometry relative="1" as="geometry" />
        </mxCell>
        <mxCell id="JUWiWhIVb3IbLbOKeKsi-42" value="Attack done" style="edgeLabel;html=1;align=center;verticalAlign=middle;resizable=0;points=[];" parent="JUWiWhIVb3IbLbOKeKsi-41" vertex="1" connectable="0">
          <mxGeometry x="0.237" y="-1" relative="1" as="geometry">
            <mxPoint x="-1" y="21" as="offset" />
          </mxGeometry>
        </mxCell>
        <mxCell id="JUWiWhIVb3IbLbOKeKsi-7" value="Attack" style="rounded=1;whiteSpace=wrap;html=1;arcSize=24;fontColor=#000000;fillColor=#ffffc0;strokeColor=#ff0000;shadow=0;comic=0;align=center;verticalAlign=middle;fontFamily=Verdana;fontSize=12;labelBackgroundColor=none;" parent="1" vertex="1">
          <mxGeometry x="380" y="670" width="120" height="60" as="geometry" />
        </mxCell>
        <mxCell id="JUWiWhIVb3IbLbOKeKsi-37" style="edgeStyle=orthogonalEdgeStyle;rounded=1;orthogonalLoop=1;jettySize=auto;html=1;exitX=0.5;exitY=0;exitDx=0;exitDy=0;entryX=0;entryY=0.5;entryDx=0;entryDy=0;strokeColor=#ff0000;align=left;verticalAlign=middle;fontFamily=Verdana;fontSize=12;fontColor=default;labelBackgroundColor=none;endArrow=open;endSize=8;" parent="1" source="JUWiWhIVb3IbLbOKeKsi-10" target="382b91b5511bd0f7-6" edge="1">
          <mxGeometry relative="1" as="geometry" />
        </mxCell>
        <mxCell id="JUWiWhIVb3IbLbOKeKsi-38" value="Return Destination Reached" style="edgeLabel;html=1;align=center;verticalAlign=middle;resizable=0;points=[];" parent="JUWiWhIVb3IbLbOKeKsi-37" vertex="1" connectable="0">
          <mxGeometry x="-0.4291" y="-1" relative="1" as="geometry">
            <mxPoint x="-1" y="6" as="offset" />
          </mxGeometry>
        </mxCell>
        <mxCell id="JUWiWhIVb3IbLbOKeKsi-10" value="Walk to Point&lt;div&gt;(Last Patrol Point)&lt;/div&gt;" style="rounded=1;whiteSpace=wrap;html=1;arcSize=24;fontColor=#000000;fillColor=#ffffc0;strokeColor=#ff0000;shadow=0;comic=0;align=center;verticalAlign=middle;fontFamily=Verdana;fontSize=12;labelBackgroundColor=none;" parent="1" vertex="1">
          <mxGeometry x="40" y="370" width="120" height="60" as="geometry" />
        </mxCell>
        <mxCell id="JUWiWhIVb3IbLbOKeKsi-46" style="edgeStyle=orthogonalEdgeStyle;rounded=1;orthogonalLoop=1;jettySize=auto;html=1;exitX=1;exitY=0.5;exitDx=0;exitDy=0;strokeColor=#ff0000;align=left;verticalAlign=middle;fontFamily=Verdana;fontSize=12;fontColor=default;labelBackgroundColor=none;endArrow=open;endSize=8;" parent="1" source="JUWiWhIVb3IbLbOKeKsi-15" edge="1">
          <mxGeometry relative="1" as="geometry">
            <mxPoint x="440" y="420" as="targetPoint" />
          </mxGeometry>
        </mxCell>
        <mxCell id="JUWiWhIVb3IbLbOKeKsi-47" style="edgeStyle=orthogonalEdgeStyle;rounded=1;orthogonalLoop=1;jettySize=auto;html=1;exitX=0;exitY=0.5;exitDx=0;exitDy=0;entryX=0;entryY=0.75;entryDx=0;entryDy=0;strokeColor=#ff0000;align=left;verticalAlign=middle;fontFamily=Verdana;fontSize=12;fontColor=default;labelBackgroundColor=none;endArrow=open;endSize=8;" parent="1" source="JUWiWhIVb3IbLbOKeKsi-15" target="382b91b5511bd0f7-6" edge="1">
          <mxGeometry relative="1" as="geometry" />
        </mxCell>
        <mxCell id="JUWiWhIVb3IbLbOKeKsi-51" value="No" style="edgeLabel;html=1;align=center;verticalAlign=middle;resizable=0;points=[];" parent="JUWiWhIVb3IbLbOKeKsi-47" vertex="1" connectable="0">
          <mxGeometry x="0.0248" y="2" relative="1" as="geometry">
            <mxPoint x="12" y="50" as="offset" />
          </mxGeometry>
        </mxCell>
        <mxCell id="JUWiWhIVb3IbLbOKeKsi-15" value="Got Aggro" style="rhombus;whiteSpace=wrap;html=1;fontColor=#000000;fillColor=#ffffc0;strokeColor=#ff0000;" parent="1" vertex="1">
          <mxGeometry x="240" y="260" width="120" height="80" as="geometry" />
        </mxCell>
        <mxCell id="JUWiWhIVb3IbLbOKeKsi-29" style="edgeStyle=orthogonalEdgeStyle;rounded=1;orthogonalLoop=1;jettySize=auto;html=1;exitX=0.5;exitY=1;exitDx=0;exitDy=0;entryX=0.5;entryY=0;entryDx=0;entryDy=0;strokeColor=#ff0000;align=left;verticalAlign=middle;fontFamily=Verdana;fontSize=12;fontColor=default;labelBackgroundColor=none;endArrow=open;endSize=8;" parent="1" source="JUWiWhIVb3IbLbOKeKsi-24" target="JUWiWhIVb3IbLbOKeKsi-7" edge="1">
          <mxGeometry relative="1" as="geometry" />
        </mxCell>
        <mxCell id="JUWiWhIVb3IbLbOKeKsi-33" value="Yes" style="edgeLabel;html=1;align=center;verticalAlign=middle;resizable=0;points=[];" parent="JUWiWhIVb3IbLbOKeKsi-29" vertex="1" connectable="0">
          <mxGeometry x="-0.0143" y="2" relative="1" as="geometry">
            <mxPoint x="8" y="-24" as="offset" />
          </mxGeometry>
        </mxCell>
        <mxCell id="JUWiWhIVb3IbLbOKeKsi-31" style="edgeStyle=orthogonalEdgeStyle;rounded=1;orthogonalLoop=1;jettySize=auto;html=1;exitX=0;exitY=0.5;exitDx=0;exitDy=0;entryX=1;entryY=0.5;entryDx=0;entryDy=0;strokeColor=#ff0000;align=left;verticalAlign=middle;fontFamily=Verdana;fontSize=12;fontColor=default;labelBackgroundColor=none;endArrow=open;endSize=8;" parent="1" source="JUWiWhIVb3IbLbOKeKsi-24" target="JUWiWhIVb3IbLbOKeKsi-30" edge="1">
          <mxGeometry relative="1" as="geometry" />
        </mxCell>
        <mxCell id="JUWiWhIVb3IbLbOKeKsi-32" value="No" style="edgeLabel;html=1;align=left;verticalAlign=middle;resizable=0;points=[];rounded=1;strokeColor=#ff0000;fontFamily=Verdana;fontSize=12;fontColor=default;labelBackgroundColor=none;" parent="JUWiWhIVb3IbLbOKeKsi-31" vertex="1" connectable="0">
          <mxGeometry x="0.1625" y="3" relative="1" as="geometry">
            <mxPoint x="12" y="-57" as="offset" />
          </mxGeometry>
        </mxCell>
        <mxCell id="JUWiWhIVb3IbLbOKeKsi-24" value="In Attack Range" style="rhombus;whiteSpace=wrap;html=1;fontColor=#000000;fillColor=#ffffc0;strokeColor=#ff0000;align=center;verticalAlign=middle;fontFamily=Helvetica;fontSize=12;" parent="1" vertex="1">
          <mxGeometry x="380" y="520" width="120" height="80" as="geometry" />
        </mxCell>
        <mxCell id="JUWiWhIVb3IbLbOKeKsi-34" style="edgeStyle=orthogonalEdgeStyle;rounded=1;orthogonalLoop=1;jettySize=auto;html=1;exitX=0.5;exitY=0;exitDx=0;exitDy=0;entryX=0;entryY=0.75;entryDx=0;entryDy=0;strokeColor=#ff0000;align=left;verticalAlign=middle;fontFamily=Verdana;fontSize=12;fontColor=default;labelBackgroundColor=none;endArrow=open;endSize=8;" parent="1" source="JUWiWhIVb3IbLbOKeKsi-30" target="JUWiWhIVb3IbLbOKeKsi-1" edge="1">
          <mxGeometry relative="1" as="geometry" />
        </mxCell>
        <mxCell id="JUWiWhIVb3IbLbOKeKsi-35" value="Yes" style="edgeLabel;html=1;align=center;verticalAlign=middle;resizable=0;points=[];" parent="JUWiWhIVb3IbLbOKeKsi-34" vertex="1" connectable="0">
          <mxGeometry x="0.073" y="2" relative="1" as="geometry">
            <mxPoint x="-2" y="117" as="offset" />
          </mxGeometry>
        </mxCell>
        <mxCell id="JUWiWhIVb3IbLbOKeKsi-36" style="edgeStyle=orthogonalEdgeStyle;rounded=1;orthogonalLoop=1;jettySize=auto;html=1;exitX=0;exitY=0.5;exitDx=0;exitDy=0;entryX=0.5;entryY=1;entryDx=0;entryDy=0;strokeColor=#ff0000;align=left;verticalAlign=middle;fontFamily=Verdana;fontSize=12;fontColor=default;labelBackgroundColor=none;endArrow=open;endSize=8;" parent="1" source="JUWiWhIVb3IbLbOKeKsi-30" target="JUWiWhIVb3IbLbOKeKsi-10" edge="1">
          <mxGeometry relative="1" as="geometry" />
        </mxCell>
        <mxCell id="JUWiWhIVb3IbLbOKeKsi-43" value="No" style="edgeLabel;html=1;align=center;verticalAlign=middle;resizable=0;points=[];" parent="JUWiWhIVb3IbLbOKeKsi-36" vertex="1" connectable="0">
          <mxGeometry x="-0.09" y="1" relative="1" as="geometry">
            <mxPoint x="81" y="32" as="offset" />
          </mxGeometry>
        </mxCell>
        <mxCell id="JUWiWhIVb3IbLbOKeKsi-30" value="Player Detected" style="rhombus;whiteSpace=wrap;html=1;fontColor=#000000;fillColor=#ffffc0;strokeColor=#ff0000;" parent="1" vertex="1">
          <mxGeometry x="190" y="590" width="120" height="80" as="geometry" />
        </mxCell>
        <mxCell id="JUWiWhIVb3IbLbOKeKsi-45" style="edgeStyle=orthogonalEdgeStyle;rounded=1;orthogonalLoop=1;jettySize=auto;html=1;exitX=0;exitY=0.5;exitDx=0;exitDy=0;strokeColor=#ff0000;align=left;verticalAlign=middle;fontFamily=Verdana;fontSize=12;fontColor=default;labelBackgroundColor=none;endArrow=open;endSize=8;" parent="1" source="JUWiWhIVb3IbLbOKeKsi-44" edge="1">
          <mxGeometry relative="1" as="geometry">
            <mxPoint x="440" y="420" as="targetPoint" />
          </mxGeometry>
        </mxCell>
        <mxCell id="JUWiWhIVb3IbLbOKeKsi-53" value="Yes" style="edgeLabel;html=1;align=center;verticalAlign=middle;resizable=0;points=[];" parent="JUWiWhIVb3IbLbOKeKsi-45" vertex="1" connectable="0">
          <mxGeometry x="-0.7206" y="-1" relative="1" as="geometry">
            <mxPoint x="-69" y="11" as="offset" />
          </mxGeometry>
        </mxCell>
        <mxCell id="JUWiWhIVb3IbLbOKeKsi-48" style="edgeStyle=orthogonalEdgeStyle;rounded=1;orthogonalLoop=1;jettySize=auto;html=1;exitX=1;exitY=0.5;exitDx=0;exitDy=0;entryX=1;entryY=0.75;entryDx=0;entryDy=0;strokeColor=#ff0000;align=left;verticalAlign=middle;fontFamily=Verdana;fontSize=12;fontColor=default;labelBackgroundColor=none;endArrow=open;endSize=8;" parent="1" source="JUWiWhIVb3IbLbOKeKsi-44" target="JUWiWhIVb3IbLbOKeKsi-3" edge="1">
          <mxGeometry relative="1" as="geometry" />
        </mxCell>
        <mxCell id="JUWiWhIVb3IbLbOKeKsi-52" value="No" style="edgeLabel;html=1;align=center;verticalAlign=middle;resizable=0;points=[];" parent="JUWiWhIVb3IbLbOKeKsi-48" vertex="1" connectable="0">
          <mxGeometry x="-0.5657" y="2" relative="1" as="geometry">
            <mxPoint x="-8" as="offset" />
          </mxGeometry>
        </mxCell>
        <mxCell id="JUWiWhIVb3IbLbOKeKsi-44" value="Got Aggro" style="rhombus;whiteSpace=wrap;html=1;fontColor=#000000;fillColor=#ffffc0;strokeColor=#ff0000;" parent="1" vertex="1">
          <mxGeometry x="540" y="260" width="120" height="80" as="geometry" />
        </mxCell>
        <mxCell id="JUWiWhIVb3IbLbOKeKsi-60" style="edgeStyle=orthogonalEdgeStyle;rounded=0;orthogonalLoop=1;jettySize=auto;html=1;exitX=0.5;exitY=1;exitDx=0;exitDy=0;entryX=0;entryY=0.5;entryDx=0;entryDy=0;strokeColor=#ff0000;align=center;verticalAlign=middle;fontFamily=Helvetica;fontSize=12;fontColor=#000000;fillColor=#ffffc0;" parent="1" source="JUWiWhIVb3IbLbOKeKsi-54" target="JUWiWhIVb3IbLbOKeKsi-1" edge="1">
          <mxGeometry relative="1" as="geometry">
            <Array as="points">
              <mxPoint x="300" y="450" />
            </Array>
          </mxGeometry>
        </mxCell>
        <mxCell id="JUWiWhIVb3IbLbOKeKsi-63" value="No" style="edgeLabel;html=1;align=center;verticalAlign=middle;resizable=0;points=[];" parent="JUWiWhIVb3IbLbOKeKsi-60" vertex="1" connectable="0">
          <mxGeometry x="-0.8058" y="-1" relative="1" as="geometry">
            <mxPoint x="31" y="-9" as="offset" />
          </mxGeometry>
        </mxCell>
        <mxCell id="JUWiWhIVb3IbLbOKeKsi-61" style="edgeStyle=orthogonalEdgeStyle;rounded=0;orthogonalLoop=1;jettySize=auto;html=1;exitX=0;exitY=0.5;exitDx=0;exitDy=0;entryX=1;entryY=0.5;entryDx=0;entryDy=0;strokeColor=#ff0000;align=center;verticalAlign=middle;fontFamily=Helvetica;fontSize=12;fontColor=#000000;fillColor=#ffffc0;" parent="1" source="JUWiWhIVb3IbLbOKeKsi-54" target="JUWiWhIVb3IbLbOKeKsi-10" edge="1">
          <mxGeometry relative="1" as="geometry" />
        </mxCell>
        <mxCell id="JUWiWhIVb3IbLbOKeKsi-62" value="Yes" style="edgeLabel;html=1;align=center;verticalAlign=middle;resizable=0;points=[];" parent="JUWiWhIVb3IbLbOKeKsi-61" vertex="1" connectable="0">
          <mxGeometry x="-0.4571" relative="1" as="geometry">
            <mxPoint x="9" y="-10" as="offset" />
          </mxGeometry>
        </mxCell>
        <mxCell id="JUWiWhIVb3IbLbOKeKsi-54" value="Chase Distance Reached" style="rhombus;whiteSpace=wrap;html=1;fontColor=#000000;fillColor=#ffffc0;strokeColor=#ff0000;align=center;verticalAlign=middle;fontFamily=Helvetica;fontSize=12;" parent="1" vertex="1">
          <mxGeometry x="240" y="360" width="120" height="80" as="geometry" />
        </mxCell>
      </root>
    </mxGraphModel>
  </diagram>
</mxfile>
